<?xml version="1.0" standalone="no"?>
<!DOCTYPE svg PUBLIC "-//W3C//DTD SVG 20010904//EN"
 "http://www.w3.org/TR/2001/REC-SVG-20010904/DTD/svg10.dtd">
<svg version="1.0" xmlns="http://www.w3.org/2000/svg"
 width="650.000000pt" height="650.000000pt" viewBox="0 0 650.000000 650.000000"
 preserveAspectRatio="xMidYMid meet">
<metadata>
Created by potrace 1.11, written by Peter Selinger 2001-2013
</metadata>
<g transform="translate(0.000000,650.000000) scale(0.100000,-0.100000)"
fill="#000000" stroke="none">
<path d="M922 5244 c-95 -29 -177 -107 -212 -200 -20 -54 -20 -72 -20 -1375
l0 -1319 29 -64 c34 -75 89 -133 157 -167 l49 -24 834 -3 834 -2 -7 -123 c-3
-67 -9 -168 -12 -224 l-7 -103 562 0 561 0 0 60 c0 58 -1 60 -61 127 -117 131
-194 265 -250 436 l-32 97 -1178 0 c-1057 0 -1179 2 -1193 16 -14 14 -16 145
-16 1299 l0 1284 22 15 c20 14 241 16 2150 16 2115 0 2128 0 2148 -20 20 -20
20 -33 20 -740 l0 -720 83 -94 c45 -52 102 -128 127 -170 25 -41 48 -76 53
-76 12 0 9 1771 -4 1832 -23 110 -104 201 -212 237 -61 21 -61 21 -2221 20
-1787 -1 -2168 -3 -2204 -15z"/>
<path d="M2009 4637 c-143 -60 -217 -161 -241 -327 -43 -293 177 -528 451
-480 179 31 297 157 324 347 28 190 -57 369 -210 445 -60 29 -77 33 -167 36
-88 2 -108 0 -157 -21z m230 -215 c40 -30 60 -64 71 -121 29 -156 -44 -268
-168 -258 -60 4 -97 27 -127 78 -29 49 -28 187 1 244 40 78 155 107 223 57z"/>
<path d="M3376 4641 c-89 -59 -86 -175 6 -231 32 -19 52 -20 788 -20 842 0
799 -3 847 69 41 61 20 139 -49 181 -32 19 -52 20 -798 20 -733 0 -766 -1
-794 -19z"/>
<path d="M1502 4627 c-21 -23 -22 -30 -22 -294 0 -227 -2 -273 -15 -283 -21
-17 -45 -5 -45 23 0 82 -42 114 -129 97 -83 -15 -94 -31 -89 -115 5 -78 21
-116 69 -163 50 -49 94 -65 176 -65 143 0 230 74 253 213 5 36 10 176 10 311
0 234 -1 248 -21 273 -19 24 -27 26 -93 26 -63 0 -75 -3 -94 -23z"/>
<path d="M2614 4629 c-18 -20 -19 -41 -19 -385 l0 -363 23 -23 c22 -22 28 -23
205 -22 210 1 268 13 333 68 98 84 115 264 34 352 -20 20 -20 21 0 62 40 83
16 195 -56 262 -64 59 -116 70 -324 70 -167 0 -178 -1 -196 -21z m361 -229 c0
-24 -2 -25 -77 -28 l-78 -3 0 31 0 31 78 -3 c75 -3 77 -4 77 -28z m5 -259 c20
-6 25 -13 25 -41 0 -32 -3 -35 -40 -42 -22 -5 -62 -7 -90 -6 -49 3 -50 4 -53
36 -6 57 1 62 70 61 35 -1 74 -4 88 -8z"/>
<path d="M3376 4081 c-66 -44 -85 -120 -43 -182 48 -72 6 -69 840 -69 828 0
792 -3 840 64 29 41 30 110 2 148 -46 61 0 58 -842 58 -735 0 -769 -1 -797
-19z"/>
<path d="M4290 3661 c-531 -117 -890 -602 -840 -1135 37 -390 299 -740 663
-886 201 -80 448 -95 662 -40 44 11 136 48 205 82 l124 61 196 -200 c107 -110
211 -208 230 -218 117 -60 267 21 278 149 9 110 10 109 -218 342 l-210 214 30
49 c66 107 116 244 141 388 18 108 7 316 -25 428 -102 372 -385 652 -765 756
-111 31 -353 36 -471 10z m405 -326 c375 -100 607 -479 529 -863 -18 -93 -86
-236 -148 -314 -93 -117 -240 -210 -396 -249 -116 -29 -290 -23 -403 14 -464
152 -654 702 -382 1111 80 121 223 234 359 283 124 44 314 52 441 18z"/>
<path d="M1270 3511 c-19 -10 -46 -33 -58 -52 -41 -59 -18 -143 50 -183 23
-14 141 -16 1136 -16 l1109 0 37 55 c20 31 68 89 106 129 39 40 70 76 70 80 0
3 -543 6 -1208 6 -1156 0 -1209 -1 -1242 -19z"/>
<path d="M1303 2930 c-101 -24 -142 -127 -84 -209 42 -58 -3 -56 1091 -56
l1005 0 8 60 c5 33 15 91 22 130 7 38 11 73 9 77 -7 10 -2009 8 -2051 -2z"/>
<path d="M2301 1494 c-66 -47 -66 -191 0 -238 21 -14 101 -16 830 -16 798 0
807 0 832 21 55 43 59 169 6 221 l-27 28 -809 0 c-731 0 -811 -2 -832 -16z"/>
</g>
</svg>
